<?xml version="1.0" standalone="no"?>
<!DOCTYPE svg PUBLIC "-//W3C//DTD SVG 20010904//EN"
 "http://www.w3.org/TR/2001/REC-SVG-20010904/DTD/svg10.dtd">
<svg version="1.0" xmlns="http://www.w3.org/2000/svg"
 width="64.000000pt" height="64.000000pt" viewBox="0 0 64.000000 64.000000"
 preserveAspectRatio="xMidYMid meet">
<metadata>
Created by potrace 1.11, written by Peter Selinger 2001-2013
</metadata>
<g transform="translate(0.000000,64.000000) scale(0.100000,-0.100000)"
fill="#000000" stroke="none">
<path d="M205 580 l-18 -60 -63 0 -63 0 19 -65 c10 -36 16 -65 12 -65 -4 0
-26 -15 -50 -34 l-42 -34 48 -39 49 -38 -19 -55 c-10 -29 -15 -57 -11 -61 5
-4 32 -9 62 -11 l54 -3 15 -45 c7 -25 15 -51 18 -58 3 -10 19 -3 54 23 56 41
48 42 122 -15 31 -24 29 -26 51 50 l13 45 62 3 c68 3 66 -1 43 81 -12 43 -12
46 12 63 14 10 36 27 49 38 l23 19 -23 16 c-13 9 -34 27 -48 39 -25 21 -25 22
-10 66 27 76 24 80 -44 80 l-59 0 -18 61 -18 61 -47 -36 c-26 -20 -50 -36 -54
-36 -4 0 -26 16 -50 35 -23 19 -44 35 -47 35 -2 0 -12 -27 -22 -60z m78 -3
c19 -16 23 -37 6 -37 -7 0 -5 -10 5 -25 13 -20 14 -28 4 -45 -14 -22 -18 -23
-42 -14 -10 4 -16 18 -16 35 0 19 -5 29 -15 29 -18 0 -18 2 -4 51 12 40 17 40
62 6z m157 -54 c0 -2 -7 -3 -15 -3 -10 0 -15 -10 -15 -30 0 -16 -4 -30 -9 -30
-5 0 -16 -3 -24 -6 -23 -8 -41 30 -27 57 8 14 8 24 1 33 -9 10 -2 19 26 38
l38 25 12 -41 c7 -23 13 -42 13 -43z m-109 4 c-1 -12 -15 -9 -19 4 -3 6 1 10
8 8 6 -3 11 -8 11 -12z m-157 -42 c-4 -9 3 -19 20 -26 36 -17 36 -56 0 -65
-19 -5 -29 -1 -41 15 -11 16 -18 19 -28 11 -9 -8 -14 -4 -18 17 -3 16 -9 36
-12 46 -6 15 -1 17 39 17 36 0 44 -3 40 -15z m46 0 c0 -9 -6 -12 -15 -9 -8 4
-12 10 -9 15 8 14 24 10 24 -6z m230 0 c0 -8 -4 -15 -10 -15 -5 0 -10 7 -10
15 0 8 5 15 10 15 6 0 10 -7 10 -15z m104 -7 c-17 -55 -24 -67 -37 -62 -7 2
-21 -4 -31 -15 -14 -16 -23 -18 -37 -10 -28 14 -24 53 6 67 16 7 23 17 19 27
-5 12 3 15 41 15 43 0 46 -1 39 -22z m-173 -43 c27 6 29 5 29 -24 0 -18 5 -31
13 -31 6 0 19 -4 27 -10 12 -7 12 -12 -4 -29 -17 -19 -18 -22 -2 -46 16 -24
15 -25 -9 -31 -20 -5 -25 -12 -25 -36 0 -27 -2 -29 -29 -23 -23 5 -32 2 -43
-14 l-15 -21 -18 20 c-14 15 -26 19 -46 15 -24 -5 -26 -4 -22 19 5 22 0 28
-26 39 -28 12 -30 15 -17 27 20 16 20 39 0 61 -14 15 -13 18 15 27 24 8 31 17
31 36 0 23 3 25 29 20 23 -5 32 -2 41 16 l12 22 15 -22 c12 -17 21 -20 44 -15z
m-237 -56 c-3 -5 -10 -7 -15 -3 -5 3 -7 10 -3 15 3 5 10 7 15 3 5 -3 7 -10 3
-15z m376 6 c0 -8 -7 -15 -16 -15 -14 0 -14 3 -4 15 7 8 14 15 16 15 2 0 4 -7
4 -15z m-410 -26 c0 -7 11 -8 29 -4 24 5 32 2 41 -14 17 -32 -4 -63 -36 -55
-17 4 -29 2 -34 -6 -7 -11 -17 -7 -45 14 l-36 28 32 24 c36 26 49 30 49 13z
m483 -27 c17 -19 16 -20 -17 -45 -27 -21 -35 -24 -40 -12 -3 10 -14 13 -33 9
-38 -7 -59 23 -37 54 12 17 19 19 38 12 18 -7 26 -5 30 6 7 17 31 8 59 -24z
m-445 -73 c-2 -6 -8 -10 -13 -10 -5 0 -11 4 -13 10 -2 6 4 11 13 11 9 0 15 -5
13 -11z m369 -16 c-3 -3 -11 -2 -17 2 -9 6 -9 10 1 16 14 8 27 -7 16 -18z
m-300 -27 c1 -20 -4 -27 -23 -32 -15 -4 -24 -13 -24 -25 0 -15 -7 -19 -40 -19
-45 0 -44 -1 -29 50 9 29 16 36 30 33 10 -3 23 3 30 15 17 28 53 14 56 -22z
m271 13 c10 -15 16 -18 26 -10 11 9 17 2 28 -34 l15 -45 -44 0 c-34 0 -44 3
-40 14 3 8 -5 18 -19 25 -23 10 -33 48 -17 64 13 14 38 7 51 -14z m-193 -59
c17 -19 17 -21 0 -40 -14 -15 -15 -23 -6 -34 9 -11 4 -19 -23 -40 l-34 -26
-15 44 c-14 42 -14 44 4 49 12 3 17 12 14 26 -2 12 3 25 13 31 24 13 27 13 47
-10z m100 6 c12 -8 16 -19 12 -30 -5 -13 -1 -19 13 -23 11 -3 20 -6 20 -7 -2
-12 -28 -78 -33 -79 -3 -1 -19 8 -37 21 -25 19 -29 26 -19 38 9 11 8 18 -4 32
-15 16 -15 20 -1 40 18 26 24 27 49 8z m-178 -21 c0 -8 -6 -15 -14 -15 -14 0
-17 12 -6 23 11 11 20 8 20 -8z m233 -6 c0 -5 -4 -9 -10 -9 -5 0 -10 7 -10 16
0 8 5 12 10 9 6 -3 10 -10 10 -16z m-120 -34 c0 -8 -4 -15 -10 -15 -5 0 -10 7
-10 15 0 8 5 15 10 15 6 0 10 -7 10 -15z"/>
</g>
</svg>
