<?xml version="1.0" standalone="no"?>
<!DOCTYPE svg PUBLIC "-//W3C//DTD SVG 20010904//EN"
 "http://www.w3.org/TR/2001/REC-SVG-20010904/DTD/svg10.dtd">
<svg version="1.0" xmlns="http://www.w3.org/2000/svg"
 width="1091.000000pt" height="1091.000000pt" viewBox="0 0 1091.000000 1091.000000"
 preserveAspectRatio="xMidYMid meet">
<metadata>
Created by potrace 1.11, written by Peter Selinger 2001-2013
</metadata>
<g transform="translate(0.000000,1091.000000) scale(0.100000,-0.100000)"
fill="#000000" stroke="none">
<path d="M3854 10610 c-15 -6 -31 -39 -64 -137 -91 -265 -180 -529 -184 -543
-4 -14 -305 -911 -387 -1154 l-34 -100 -1015 3 c-1015 2 -1016 2 -1034 -18
-22 -24 -21 -27 51 -251 19 -58 36 -112 38 -120 2 -13 23 -79 78 -250 6 -19
12 -39 13 -45 1 -5 18 -59 37 -120 20 -60 56 -177 82 -260 26 -82 56 -177 67
-210 11 -33 21 -64 22 -70 2 -5 13 -44 26 -85 13 -41 24 -77 25 -80 0 -3 11
-39 25 -80 13 -41 25 -79 26 -85 1 -5 14 -48 29 -95 41 -132 65 -213 62 -216
-3 -3 -187 -134 -777 -554 -289 -206 -537 -383 -552 -394 -14 -12 -87 -64
-162 -116 -74 -52 -139 -104 -144 -115 -6 -12 -6 -28 0 -40 5 -11 76 -68 156
-127 81 -59 354 -261 607 -448 253 -187 553 -409 666 -492 l206 -152 -29 -86
c-16 -47 -32 -92 -35 -100 -3 -8 -7 -19 -9 -25 -1 -5 -66 -199 -144 -430 -78
-231 -143 -427 -145 -435 -2 -8 -8 -28 -15 -45 -6 -16 -12 -32 -13 -35 0 -3
-54 -162 -119 -355 -66 -192 -121 -361 -124 -374 -3 -14 -7 -28 -10 -33 -10
-15 16 -46 43 -52 16 -3 336 -8 713 -12 377 -3 780 -7 895 -9 116 -2 255 -4
311 -4 l100 -1 21 -67 c23 -74 138 -435 183 -578 59 -183 110 -345 170 -535
34 -107 70 -220 80 -250 17 -52 119 -373 142 -450 13 -42 35 -70 57 -70 20 0
60 27 252 165 84 61 163 117 175 125 28 19 295 211 309 222 6 5 89 64 185 133
96 68 180 127 185 132 6 5 39 29 74 53 76 54 60 42 290 207 102 73 191 133
198 133 11 0 105 -67 323 -230 34 -25 773 -571 1060 -783 58 -43 112 -83 120
-90 97 -79 154 -103 178 -74 11 12 132 356 137 387 1 8 7 26 12 40 6 14 69
201 142 415 72 215 182 541 245 725 l113 335 1014 0 c558 1 1020 4 1027 9 21
13 30 49 20 76 -10 24 -91 284 -128 405 -10 33 -41 134 -70 225 -28 91 -60
192 -70 225 -15 50 -184 589 -238 760 -8 28 -17 55 -18 60 -4 18 -62 200 -69
216 -6 16 5 28 61 67 42 29 932 665 974 696 25 18 162 116 304 217 310 220
320 229 305 261 -6 12 -53 55 -106 93 -53 39 -272 201 -488 360 -216 160 -405
299 -420 310 -15 11 -48 36 -74 55 -25 20 -122 92 -216 160 -93 68 -172 127
-175 130 -3 4 -27 22 -55 40 -27 19 -60 44 -73 55 l-23 21 31 95 c17 52 33
101 37 109 3 8 7 20 9 25 1 6 41 125 89 265 47 140 88 262 90 270 2 8 89 269
193 579 104 311 187 573 184 583 -2 10 -12 23 -21 27 -16 9 -279 15 -1301 27
-289 3 -572 7 -630 8 -100 1 -105 2 -117 26 -11 21 -143 425 -149 455 -1 6 -9
30 -17 55 -8 25 -50 153 -92 285 -42 132 -104 323 -137 425 -33 102 -71 221
-85 265 -13 44 -27 87 -30 95 -3 8 -7 20 -9 25 -1 6 -21 69 -44 140 -23 72
-42 132 -42 135 1 13 -34 40 -52 40 -12 0 -123 -73 -248 -163 -125 -89 -377
-268 -558 -397 -182 -129 -339 -241 -348 -248 -9 -7 -55 -40 -102 -73 -47 -33
-92 -65 -100 -72 -8 -7 -28 -21 -45 -31 -16 -11 -34 -23 -40 -28 -33 -29 -207
-148 -215 -148 -5 0 -108 73 -229 163 -120 89 -405 299 -632 467 -460 340
-549 406 -564 417 -44 36 -193 140 -205 145 -8 3 -24 2 -36 -2z m301 -486 c66
-48 212 -155 325 -238 113 -82 248 -181 300 -220 52 -39 105 -78 117 -86 89
-60 413 -303 413 -310 0 -5 -60 -50 -132 -101 -273 -190 -298 -210 -298 -234
0 -13 17 -47 37 -76 43 -62 52 -76 193 -275 58 -81 123 -173 144 -203 21 -31
56 -80 77 -110 24 -33 36 -58 31 -65 -5 -6 -22 -29 -39 -51 -17 -22 -84 -112
-148 -200 -65 -88 -167 -226 -227 -307 l-109 -146 -392 133 c-216 73 -404 138
-419 144 l-28 10 6 419 c5 399 4 419 -14 435 -18 16 -153 24 -509 31 -29 1
-53 4 -53 7 0 5 511 1541 524 1576 5 11 14 8 43 -15 21 -16 92 -69 158 -118z
m3015 -154 c45 -140 113 -351 152 -469 38 -117 71 -218 72 -225 1 -6 46 -146
100 -311 53 -165 99 -306 101 -312 4 -10 -55 -13 -269 -13 -237 0 -275 -2
-287 -16 -10 -12 -14 -108 -16 -437 -2 -232 -6 -423 -8 -425 -2 -3 -66 -24
-142 -48 -76 -23 -262 -81 -413 -128 -151 -47 -279 -86 -285 -86 -8 1 -285
378 -385 523 -8 12 -41 58 -73 102 -31 43 -55 85 -53 91 2 6 64 92 137 190
278 374 359 486 359 499 0 24 -34 53 -231 202 -108 81 -197 152 -198 156 -3
12 1342 978 1350 969 4 -4 43 -122 89 -262z m-1530 -935 c63 -47 126 -93 139
-102 14 -10 36 -27 50 -39 l25 -21 -40 -54 c-70 -97 -135 -184 -147 -199 -7
-8 -44 -58 -83 -111 l-70 -96 -168 234 -168 234 23 17 c13 9 48 35 80 57 31
22 96 68 144 103 49 34 91 62 94 62 4 0 58 -38 121 -85z m-2546 -605 c-1 -8
-34 -114 -74 -235 -41 -121 -75 -237 -78 -257 -3 -32 -1 -38 25 -51 15 -8 195
-69 398 -137 204 -68 375 -126 380 -131 7 -5 11 -162 13 -448 l2 -440 -162
-51 c-90 -28 -248 -78 -353 -111 -104 -33 -223 -71 -262 -84 l-73 -24 -26 37
c-134 191 -455 637 -463 645 -24 24 -64 6 -207 -95 -82 -57 -179 -125 -215
-150 l-67 -46 -20 61 c-75 234 -296 920 -368 1147 -42 129 -86 267 -100 307
-13 39 -24 74 -24 78 0 3 377 5 838 3 726 -3 837 -6 836 -18z m659 1 c18 -1
18 -15 14 -281 -2 -154 -6 -282 -9 -285 -2 -3 -122 34 -267 83 -258 86 -261
87 -256 112 7 29 45 157 82 275 13 44 26 86 28 92 4 11 179 13 408 4z m3967
-188 c29 -87 58 -177 65 -199 l12 -41 -261 -83 c-143 -45 -267 -85 -274 -88
-10 -4 -13 49 -11 274 2 154 4 282 6 287 2 4 95 7 207 7 l203 0 53 -157z
m1873 138 c4 -4 -3 -39 -17 -77 -14 -38 -79 -235 -146 -439 -67 -203 -124
-377 -127 -385 -3 -8 -7 -20 -8 -26 -3 -13 -171 -522 -198 -596 -11 -32 -22
-58 -25 -58 -3 0 -99 67 -212 149 -114 82 -217 152 -229 156 -30 9 -58 -22
-231 -258 -240 -328 -311 -422 -320 -425 -5 -2 -49 10 -97 27 -399 136 -736
251 -738 251 -6 0 6 875 12 881 5 4 179 62 388 129 209 67 390 128 403 136 25
17 27 41 8 104 -8 25 -42 133 -75 240 -34 107 -61 199 -61 203 0 10 1662 -2
1673 -12z m-4056 -398 c10 -16 38 -56 63 -89 25 -34 52 -71 60 -83 187 -268
409 -567 422 -569 16 -3 163 41 703 208 110 35 206 63 213 64 11 1 14 -84 13
-474 -1 -370 2 -480 11 -493 13 -17 47 -29 573 -208 165 -56 310 -106 322
-110 l23 -8 -28 -40 c-15 -22 -140 -192 -278 -379 -139 -187 -255 -348 -258
-359 -6 -19 24 -67 184 -288 20 -28 157 -221 180 -255 6 -8 49 -69 95 -134 47
-65 85 -122 85 -126 0 -3 -66 -27 -147 -52 -137 -43 -655 -205 -731 -229 -19
-6 -37 -21 -41 -32 -5 -12 -11 -233 -15 -492 -4 -258 -9 -471 -11 -474 -5 -5
-80 20 -548 178 -262 89 -362 119 -375 112 -9 -5 -71 -83 -137 -173 -66 -89
-123 -167 -128 -173 -4 -5 -75 -101 -158 -212 -82 -112 -154 -203 -158 -203
-5 0 -21 19 -37 42 -16 24 -34 49 -41 58 -7 8 -73 101 -147 205 -74 105 -139
195 -143 200 -5 6 -46 63 -92 128 -45 64 -92 122 -102 128 -16 8 -113 -18
-472 -126 -249 -75 -456 -137 -462 -138 -7 -1 -10 164 -10 480 0 325 -4 486
-11 493 -14 14 -62 31 -521 185 -211 71 -383 133 -383 139 0 6 51 79 113 161
62 83 182 245 267 360 84 116 157 212 160 215 24 19 9 75 -34 127 -9 10 -77
106 -152 213 -76 107 -141 197 -146 198 -4 2 -8 7 -8 12 0 5 -44 71 -99 147
l-99 138 32 12 c27 10 559 183 794 258 56 18 86 33 93 48 7 12 13 90 15 191 2
94 5 305 8 470 3 164 7 300 8 301 2 2 207 -65 456 -147 250 -82 460 -147 468
-144 8 3 81 97 164 208 82 112 153 208 158 213 4 6 19 25 32 44 14 19 30 42
37 50 21 27 96 128 143 191 24 33 48 60 52 60 4 0 16 -12 25 -27z m-3077
-1285 c191 -268 212 -300 203 -307 -4 -4 -102 -38 -218 -75 -115 -37 -231 -75
-257 -84 -26 -9 -50 -14 -53 -10 -4 3 -31 86 -61 185 -30 98 -59 186 -64 195
-8 13 3 26 58 66 134 98 267 191 272 191 3 0 57 -72 120 -161z m6375 -26 c138
-102 164 -125 157 -140 -5 -9 -36 -95 -68 -189 -32 -95 -62 -173 -68 -173 -17
0 -536 171 -536 176 0 17 330 456 340 452 5 -2 84 -58 175 -126z m-7029 -219
c3 -10 10 -27 15 -38 5 -11 11 -29 12 -40 2 -11 7 -27 10 -35 8 -21 99 -300
102 -314 7 -37 27 -66 48 -71 16 -4 146 30 368 95 189 56 367 109 396 117 29
9 58 13 65 10 7 -2 69 -83 138 -178 68 -96 128 -175 132 -177 4 -2 8 -8 8 -14
0 -6 17 -32 38 -59 20 -26 53 -71 72 -99 19 -28 40 -57 45 -63 6 -7 27 -35 47
-64 l37 -51 -47 -64 c-26 -34 -110 -148 -187 -253 -78 -104 -174 -236 -215
-292 -41 -56 -80 -102 -86 -102 -6 -1 -184 58 -395 129 -236 80 -396 130 -414
128 -33 -3 -24 19 -161 -378 -26 -74 -48 -137 -50 -139 -2 -2 -151 106 -331
239 -180 134 -391 289 -468 346 -77 57 -234 173 -348 258 l-208 154 138 98
c76 55 139 102 141 106 2 5 8 8 13 8 5 0 17 7 26 15 39 32 1039 744 1046 744
4 1 10 -7 13 -16z m7569 -179 c94 -69 265 -196 380 -281 116 -85 255 -189 310
-230 188 -139 363 -268 385 -283 12 -8 31 -22 41 -32 11 -9 29 -22 39 -30 18
-12 -39 -55 -660 -498 -373 -267 -682 -485 -687 -485 -4 0 -14 18 -21 40 -7
22 -14 45 -16 50 -2 6 -4 12 -4 15 -1 3 -13 39 -27 80 -15 41 -28 84 -31 96
-2 11 -15 50 -28 87 -13 37 -22 67 -20 67 2 0 -5 18 -16 40 -16 32 -26 40 -48
40 -24 0 -299 -79 -725 -207 l-88 -27 -22 25 c-12 14 -26 32 -32 41 -5 9 -49
70 -96 135 -47 65 -149 207 -228 316 l-142 198 23 32 c27 39 251 344 273 372
9 11 24 31 33 44 9 13 35 47 57 76 22 29 47 63 55 75 30 43 83 110 88 110 3 0
182 -58 399 -130 217 -71 400 -130 407 -130 32 0 51 40 126 260 44 129 82 241
85 248 2 6 8 12 12 12 4 0 85 -57 178 -126z m-6962 -1629 l247 -82 -57 -79
c-31 -44 -66 -91 -77 -105 -12 -15 -29 -37 -38 -50 -16 -23 -90 -127 -140
-196 -13 -18 -27 -33 -31 -33 -11 0 -327 240 -327 249 0 8 101 316 119 364 9
23 15 27 34 22 12 -4 133 -44 270 -90z m6477 -108 c23 -72 50 -158 60 -191 11
-32 17 -63 14 -67 -3 -5 -78 -61 -167 -124 l-161 -114 -63 87 c-35 48 -71 97
-81 110 -9 12 -27 37 -40 55 -12 17 -52 71 -87 119 l-65 87 33 11 c133 48 503
166 509 163 3 -2 25 -63 48 -136z m-5577 -192 c221 -75 405 -139 409 -143 5
-5 12 -681 9 -858 -1 -30 -3 -32 -88 -57 -174 -51 -694 -217 -714 -228 -28
-15 -27 -42 8 -154 58 -186 111 -359 118 -382 l6 -23 -838 6 c-461 3 -839 7
-840 8 -1 1 31 103 72 226 94 287 215 660 345 1058 l101 313 32 -24 c150 -113
401 -288 421 -293 35 -9 8 -43 419 518 67 92 126 167 130 167 4 1 189 -60 410
-134z m4911 -132 c85 -120 167 -235 183 -257 15 -21 35 -48 43 -61 62 -92 77
-113 98 -132 13 -13 29 -23 37 -23 16 0 177 108 386 259 31 23 61 41 65 41 5
0 33 -76 62 -168 29 -92 57 -176 61 -187 8 -19 74 -224 76 -235 0 -3 12 -36
25 -75 13 -38 25 -75 26 -81 1 -7 11 -38 22 -70 11 -33 62 -187 112 -344 50
-157 100 -310 111 -341 37 -106 83 -96 -428 -93 -926 7 -1214 11 -1219 17 -4
3 28 112 70 241 43 130 79 245 81 256 2 11 -5 28 -15 38 -10 9 -193 75 -407
146 -213 71 -389 130 -391 131 -3 3 -2 385 1 712 2 96 7 177 12 182 9 8 135
48 610 193 55 16 125 38 155 48 30 10 58 19 62 19 4 1 77 -97 162 -216z
m-3199 -1109 c116 -163 230 -324 253 -359 l44 -63 -62 -84 c-34 -46 -70 -94
-80 -108 -10 -14 -37 -50 -59 -80 -22 -30 -47 -64 -56 -75 -9 -11 -22 -29 -30
-40 -68 -93 -185 -252 -193 -261 -10 -11 -15 -37 -13 -61 0 -7 92 -81 203
-165 111 -84 209 -158 217 -164 11 -9 -43 -52 -275 -217 -159 -113 -293 -210
-299 -214 -5 -5 -48 -35 -95 -68 -47 -33 -89 -63 -95 -68 -23 -19 -584 -417
-588 -417 -7 0 -21 40 -67 190 -23 74 -46 144 -50 155 -5 11 -41 121 -80 245
-40 124 -88 272 -107 330 -19 58 -36 112 -38 120 -2 8 -28 92 -58 185 -103
317 -116 359 -112 363 2 2 123 4 270 5 242 2 268 4 279 20 9 12 14 65 16 175
3 218 8 479 11 594 l3 98 45 14 c25 8 197 63 381 122 184 58 346 110 360 114
58 19 56 21 275 -286z m1535 151 l405 -135 3 -430 2 -430 23 -14 c17 -11 82
-16 282 -21 143 -4 262 -9 264 -11 2 -2 -109 -342 -248 -756 -139 -414 -254
-760 -256 -768 -16 -68 -13 -68 -121 12 -54 41 -172 128 -261 194 -89 65 -257
190 -375 276 -525 388 -608 451 -608 458 0 4 75 60 166 126 236 169 264 191
264 215 0 11 -107 171 -238 357 -131 185 -242 342 -246 349 -4 7 12 37 37 70
24 32 75 101 114 153 38 52 129 175 201 273 73 97 137 186 144 197 7 11 20 20
28 20 8 0 197 -61 420 -135z m-2829 -377 c-1 -95 -3 -220 -4 -278 l-2 -105
-207 -3 -206 -2 -66 197 c-36 108 -64 198 -62 201 7 7 541 170 545 166 2 -2 3
-81 2 -176z m3728 76 c256 -81 291 -94 291 -102 0 -14 -114 -369 -122 -379 -7
-8 -70 -12 -214 -13 l-204 -1 0 286 c0 157 3 285 7 285 3 0 112 -34 242 -76z
m-1929 -554 c3 -3 25 -34 50 -70 24 -36 48 -69 52 -75 32 -38 158 -222 158
-230 0 -6 -66 -58 -147 -115 -82 -57 -154 -110 -161 -117 -7 -7 -16 -13 -20
-13 -4 0 -82 56 -174 125 l-168 125 70 92 c89 118 80 105 184 247 l89 121 30
-42 c17 -24 34 -45 37 -48z"/>
</g>
</svg>
